<svg xmlns="http://www.w3.org/2000/svg" viewBox="0 0 58.05 125.52"><defs><style>.cls-1{fill:#6b6883;}.cls-2{fill:#f2d6c9;}.cls-3{fill:#191919;}.cls-4{fill:#333;}.cls-5{fill:#fff;}.cls-6{fill:#e2cfc5;}.cls-7{fill:#f2f2f2;}.cls-8{fill:#441a19;}</style></defs><title>BusinessWoman</title><g id="Layer_2" data-name="Layer 2"><g id="Layer_1-2" data-name="Layer 1"><g id="object"><path id="shirt" class="cls-1" d="M30.77,74.46a107,107,0,0,1-3.62-11.75c-.41-1.68-.87-3.5-2.21-4.6-1.76-1.44-4.36-1.08-6.53-.41a12.6,12.6,0,0,0-5.67,3.15C11,62.76,10.28,65.42,9.88,68a69.15,69.15,0,0,0-.21,17.72C10.11,90,13,91.19,17,90.44a84.06,84.06,0,0,1,8.91-1.63A11.18,11.18,0,0,0,29,88.29c2.42-.94,3.68-3.73,3.68-6.33S31.67,76.89,30.77,74.46Z"/><path class="cls-2" d="M12.44,120.14v0Z"/><path class="cls-2" d="M13.92,119.9a.39.39,0,0,0-.1-.08,2.75,2.75,0,0,0-1.19-.36,1.4,1.4,0,0,1-.1.39V120a5.47,5.47,0,0,1-.22,1.14.48.48,0,0,0,0,.29.46.46,0,0,0,.3.19,2.78,2.78,0,0,0,.5.11.34.34,0,0,0,.2,0,.37.37,0,0,0,.13-.15,4.78,4.78,0,0,0,.57-1.54A.22.22,0,0,0,13.92,119.9Z"/><path id="pants" class="cls-3" d="M11.3,107.93c.69,4.44,1.52,7.77.89,11.86,2,.44,1.73.93,2.58-.17a6.48,6.48,0,0,0,1-4c.08-4.58,1.1-9.41.78-14.09a54.36,54.36,0,0,1,2.25-20c1-3.24,1.81-11.42,3.46-14.37,1.36-2.42.68-9.53-2.35-12.93-5.08-5.68-5.36,3.44-7.93,6.91-3.53,4.75-2.13,13-1.77,19.2C10.7,88.76,10,99.32,11.3,107.93Z"/><path class="cls-4" d="M11.7,121.45a1,1,0,0,1,1-.3,3,3,0,0,1,1,.54,1,1,0,0,1,.37.41.82.82,0,0,1,0,.44c-.13.56-.25,1.12-.38,1.68a1.72,1.72,0,0,1-.23.62,1.71,1.71,0,0,1-1.32.53,36.9,36.9,0,0,1-6.48,0,2,2,0,0,1-.8-.19,1.28,1.28,0,0,1-.38-1.72,2.23,2.23,0,0,1,1.6-1,9.55,9.55,0,0,1,2,0,14.9,14.9,0,0,0,2.31-.12C11.27,122.15,11.19,122.15,11.7,121.45Z"/><path class="cls-2" d="M29.69,121.17a5.47,5.47,0,0,1-.22-1.14l0-.18-.11-.39a2.71,2.71,0,0,0-1.18.36.39.39,0,0,0-.1.08.22.22,0,0,0,0,.16,5,5,0,0,0,.56,1.54.4.4,0,0,0,.14.15.34.34,0,0,0,.2,0,2.78,2.78,0,0,0,.5-.11.32.32,0,0,0,.29-.19A.45.45,0,0,0,29.69,121.17Z"/><path class="cls-2" d="M29.45,119.82v0Z"/><path id="pants-2" data-name="pants" class="cls-3" d="M30.65,107.93c-.69,4.44-1.52,7.77-.9,11.86-2,.44-1.73.93-2.57-.17a6.62,6.62,0,0,1-1-4c-.07-4.58-1.09-9.41-.77-14.09a54.78,54.78,0,0,0-2.25-20c-1-3.24-1.81-11.42-3.46-14.37-1.36-2.42-.68-9.53,2.35-12.93,5.08-5.68,5.35,3.44,7.93,6.91,3.53,4.75,2.12,13,1.77,19.2C31.24,88.76,32,99.32,30.65,107.93Z"/><path class="cls-4" d="M30.25,121.45a1,1,0,0,0-1-.3,2.94,2.94,0,0,0-1,.54,1,1,0,0,0-.37.41.82.82,0,0,0,0,.44c.12.56.25,1.12.38,1.68a1.3,1.3,0,0,0,1.42,1.17l.13,0a36.9,36.9,0,0,0,6.48,0,2,2,0,0,0,.8-.19,1.29,1.29,0,0,0,.38-1.72,2.25,2.25,0,0,0-1.6-1,9.08,9.08,0,0,0-1.95,0,15,15,0,0,1-2.32-.12C30.68,122.15,30.76,122.15,30.25,121.45Z"/><path class="cls-5" d="M24.71,52.25c-.66-7.45-1-14.93-1.19-22.4,0-1.6-.21-3.48-1.58-4.29a4.33,4.33,0,0,0-2.09-.44,26.08,26.08,0,0,0-3.75.16,4.87,4.87,0,0,0-2.53.82A5.37,5.37,0,0,0,12,29,98.57,98.57,0,0,0,8.75,58.36a3.06,3.06,0,0,0,.33,1.54c.55.88,1.78,1,2.82,1A36.15,36.15,0,0,0,22,59.06c1-.31,2.6-.57,3.08-1.57S24.82,53.5,24.71,52.25Z"/><path id="shirt-2" data-name="shirt" class="cls-1" d="M11.8,24a4.26,4.26,0,0,0-1,1.55Q7.51,32.35,4.28,39.19c-.47,1-.82,2.41.12,3s1.85-.24,2.54-.94A53.88,53.88,0,0,0,15.8,30c.74-1.35,1.34-3.39.52-4.86S13.16,22.86,11.8,24Z"/><path id="shirt-3" data-name="shirt" class="cls-1" d="M6.05,36.17A59.06,59.06,0,0,1,3.83,23.52c-.69-1.13-1.71-.46-2.06.31a5.93,5.93,0,0,0-.31,2.51l.21,10.31a10.17,10.17,0,0,0,.38,3,3.31,3.31,0,0,0,2,2.16C8,43,6.51,37.86,6.05,36.17Z"/><path class="cls-2" d="M3.87,21.32a4,4,0,0,0-.68-.95.53.53,0,0,0-.17.72l.09.1a.29.29,0,0,1-.41.09h0a1.09,1.09,0,0,1-.27-.4A14.15,14.15,0,0,0,.66,18a.45.45,0,0,0-.28-.2.3.3,0,0,0-.28.33v0a1,1,0,0,0,.24.45,2.28,2.28,0,0,1,.44.88,1.09,1.09,0,0,1-.18.94c-.19.23-.5.37-.59.65a1,1,0,0,0,.27.83,4,4,0,0,0,1.24,1.32C2.75,23.91,4.49,22.75,3.87,21.32Z"/><path id="shirt-4" data-name="shirt" class="cls-1" d="M17.19,30.16c-.08-1.66.08-4.51-1-5.94C15,22.62,13.68,24,13,25.47c-1.45,3.22-1.95,7.28-2.82,10.7C8.44,43.31,6.77,50.5,5.56,57.77A172.94,172.94,0,0,0,3.37,93.05a2.14,2.14,0,0,0,.26,1.13,2.08,2.08,0,0,0,1.27.71,22.76,22.76,0,0,0,7.84.67,103.07,103.07,0,0,0-.19-10.69c-.23-8.22.93-16.39,2.15-24.5a197.65,197.65,0,0,0,2.52-21.71C17.33,35.84,17.31,33,17.19,30.16Z"/><path id="shirt-5" data-name="shirt" class="cls-1" d="M36.64,80.71C35,72.45,33.36,64.19,31,56.12,28.83,49,26.09,41.7,27,34.29a43.32,43.32,0,0,0,.59-5.2,6.48,6.48,0,0,0-1.78-4.77c-3.57-3.32-7.43,5.23-7.82,8-1,6.61,1,13.2,2.21,19.68,1.33,7.23,1.68,14.67,3.86,21.7.88,2.82,2.05,5.56,2.78,8.43a57.79,57.79,0,0,1,1.24,13.12l7.85-2.91a2.73,2.73,0,0,0,1.28-.77,2.54,2.54,0,0,0,.41-1.39A35.1,35.1,0,0,0,36.64,80.71Z"/><path class="cls-4" d="M27.29,72.81a130.44,130.44,0,0,0,8.5,12.47c1.31.16,2.54-.59,3.74-1.14a36.75,36.75,0,0,1,4.21-1.46A58.86,58.86,0,0,0,57,76.6a1.63,1.63,0,0,0,1-2,24.43,24.43,0,0,0-4.21-10.46c-1.1-1.55-2.42-3-3-4.84-.34-1-.47-3.19-1.85-2.11a40.64,40.64,0,0,1-3.62,2.67c-1,.58-2,1.1-3,1.59a6,6,0,0,0-1.07-1,3.69,3.69,0,0,0-1.83-.83,2.46,2.46,0,0,0-1.9.54,2.72,2.72,0,0,0-.79,2.06A6.26,6.26,0,0,0,37,64c-.5.25-1,.5-1.48.77a46.84,46.84,0,0,1-6.31,3.42c-1.08.39-2.36.79-2.74,1.88A3.48,3.48,0,0,0,27.29,72.81Zm10.44-9.16h0V62.07a2,2,0,0,1,.06-.69,1.44,1.44,0,0,1,1.66-.79,4.22,4.22,0,0,1,1.72,1l.39.34C40.27,62.46,39,63,37.73,63.65Z"/><path class="cls-6" d="M17.37,29.88c2.63-2.21,3-4.79,5-7.11A21.41,21.41,0,0,0,18,22.49h-.31a.23.23,0,0,0-.15.15,6.94,6.94,0,0,0-.54,4,16.83,16.83,0,0,1,0,1.74C17,28.74,17.75,29.56,17.37,29.88Z"/><path class="cls-7" d="M17.45,26.84a17.36,17.36,0,0,0,.33-4.43c-1.05.05-2.09.15-3.1.29a6.77,6.77,0,0,0,1.9,1.17c-.31.27-1.19.37-1.41.66-.09.13,0,.28.05.41a34.45,34.45,0,0,1,1.65,4.63c.51-.2.23-.93.27-1.22C17.21,27.85,17.34,27.34,17.45,26.84Z"/><path class="cls-7" d="M23.32,25.24c-.19-.11-1.64-.57-1.56-.71a.59.59,0,0,1,.3-.16l2.53-.95c-.2.07-2.07-.77-2.45-.75-.73,0-.81.75-1,1l-1.61,2.89L17.09,31a19.17,19.17,0,0,1,4.57-4.68C22.26,25.9,24,25.66,23.32,25.24Z"/><path id="shirt-6" data-name="shirt" class="cls-1" d="M28.84,28.75c-.7-1.71-1.75-3.62-3.57-3.87a1,1,0,0,0-.67.1,1.07,1.07,0,0,0-.36.53A10.55,10.55,0,0,0,24,32.08a31.83,31.83,0,0,0,2.54,6.16c1.23,2.48,2.45,4.95,3.68,7.42,1.19-.26,3-.17,3.09-1.58.14-1.57-.79-3.8-1.18-5.32A83.63,83.63,0,0,0,28.84,28.75Z"/><path id="shirt-7" data-name="shirt" class="cls-1" d="M34.29,43.91c-.23-.66-.63-1.44-1.36-1.44a1.7,1.7,0,0,0-.79.24c-.95.47-2,1.07-2.23,2.07a3,3,0,0,0,.44,1.93c1.18,2.34,2.94,4.4,4,6.78.9,2,1.42,4.32,3.26,5.61.35-.26,1.22-.69,1.35-1.1s-.43-1.49-.58-1.93c-.46-1.38-.93-2.75-1.4-4.13C36.1,49.26,35.19,46.59,34.29,43.91Z"/><path class="cls-2" d="M40.62,60.7a1.22,1.22,0,0,1,.08.73c-.15.4-.67.52-1.11.58l-.76.11a1.21,1.21,0,0,1-.38,0,.79.79,0,0,1-.45-.46c-.4-.8-1.59-3.69-.38-4.23C39.2,56.71,40.33,59.83,40.62,60.7Z"/><path class="cls-6" d="M26.58,15.72A7.28,7.28,0,0,1,22.31,21a6.77,6.77,0,0,1-5.47-.65A5.33,5.33,0,0,1,15,18.8a7.94,7.94,0,0,1-1-2.56c-.51-2-1-4-1.55-5.92A6.58,6.58,0,0,1,12.12,7a4.17,4.17,0,0,1,2.3-2.61,8.41,8.41,0,0,1,3.49-.73,18.06,18.06,0,0,1,4.69.48A6.89,6.89,0,0,1,25.43,5.4c1.35,1.11,1.34,2.49,1.35,4C26.8,11.59,27.08,13.63,26.58,15.72Z"/><path class="cls-8" d="M19.08,4a4.24,4.24,0,0,1-3.62-.92,15.39,15.39,0,0,0-1.81-1.71,3.21,3.21,0,0,0-4,.92,4.71,4.71,0,0,0-.57,4.29A3.84,3.84,0,0,0,9.81,8a4,4,0,0,0,1.62,1c2.9,1,6.15-.14,8.87-1.26a3,3,0,0,0,1.9-2.4C22.38,3.21,20.38,3.69,19.08,4Z"/><path class="cls-8" d="M41.51,29.44c-1.92-.19-3.4-1.79-4.37-3.46-3.15-5.46-3-12.18-4.45-18.33a10.38,10.38,0,0,0-1.83-4.29A8.81,8.81,0,0,0,27.18.88C24-.37,20.08-.43,17.33,1.63a4.08,4.08,0,0,0-1.8,2.83,2.17,2.17,0,0,0,2,2.35h0l1.94-.17c1-.3,2,.47,2.73,1.21a14.56,14.56,0,0,1,2.69,3.41,14.5,14.5,0,0,1,1.32,5.61c.19,2.45.18,4.91.56,7.33a13.47,13.47,0,0,0,2.74,6.72A7.4,7.4,0,0,0,36,33.7a10.58,10.58,0,0,0,3.17-1.15,6,6,0,0,0,1.73-1.18A2.26,2.26,0,0,0,41.51,29.44Z"/></g></g></g></svg>