<svg xmlns="http://www.w3.org/2000/svg" viewBox="0 0 175.75 161.34"><defs><style>.cls-1{fill:#92705e;}.cls-2{fill:#f15649;}.cls-3{fill:#fee2cc;}.cls-4{fill:#231f20;}.cls-5{fill:#e8d0bc;}.cls-6{fill:#e0c8b6;}.cls-7{fill:#b1e3fa;}.cls-8{fill:#fff218;}.cls-9{fill:#fff;}</style></defs><title>Cartman</title><g id="Layer_2" data-name="Layer 2"><g id="Layer_1-2" data-name="Layer 1"><polygon class="cls-1" points="159.37 142.71 152.65 160.98 26.61 160.98 18.84 140.82 159.37 142.71 159.37 142.71"/><path class="cls-2" d="M27.8,80S14.92,88.44,4.28,108.6l8.4,16.25A22.3,22.3,0,0,0,20.52,145C30.6,153.42,63.09,157.9,90,155.1a59.86,59.86,0,0,0,24.65-5c12.32-5.6,35.85-3.92,35.85-3.92s19.05.56,15.13-21.29L169,103s-5.6-7.84-9.53-14.56S137,81.16,137,81.16,95.58,103,27.8,80Z"/><path class="cls-3" d="M22.76,59.31c0-29.39,29-53.22,64.7-53.22s64.7,23.83,64.7,53.22-29,53.22-64.7,53.22S22.76,88.7,22.76,59.31Z"/><path class="cls-4" d="M93.34,113.65s2.24,7.84,2.24,11.76,2.24,3.92.57,11.2-.57,11.21-2.25,16.25c0,0,1.19-1.75,2.25-9.1s.41-3.79,1-10.09-.83-5.46-1-11.13a16,16,0,0,0-2.81-8.89Z"/><path class="cls-4" d="M92.78,118.65c0,1.45-.66,2.63-1.47,2.63s-1.47-1.18-1.47-2.63S90.5,116,91.31,116s1.47,1.17,1.47,2.62Z"/><path class="cls-4" d="M94.67,133.57c0,1.45-.66,2.62-1.47,2.62s-1.47-1.17-1.47-2.62.66-2.63,1.47-2.63,1.47,1.18,1.47,2.63Z"/><path class="cls-4" d="M92.78,148.06c0,1.45-.66,2.63-1.47,2.63s-1.47-1.18-1.47-2.63.66-2.62,1.47-2.62,1.47,1.17,1.47,2.62Z"/><path class="cls-5" d="M40.06,85.57S56,103.42,79.76,106,116.1,102.58,139,80.53h1.47s-23.53,26.05-45,26.68-35.08-1.48-56.71-21l1.26-.63Z"/><path class="cls-6" d="M83.33,99.64s8.61,4.62,16.39-.21c0,0,1.47-.63,0,1s-8.83,4-17,0c0,0-1.89-1.26.63-.84Z"/><path class="cls-4" d="M92.15,90.19S88.58,91.87,87.53,94s1.47,4,4,4,4.21,0,5-2.73,0-5-4.41-5Z"/><path class="cls-7" d="M23,55.53s30.25-16.6,67.43-18.28,60.71,13,60.71,13S148,24.86,116.52,11.84,58.12,11.21,48,17.51s-22.27,17.22-25,38Z"/><path class="cls-8" d="M22.83,57.63S56.23,40.4,89.42,39.77s62.18,13,62.18,13a17.47,17.47,0,0,0-1.26-6.09s-19.74-13.24-60.92-12-66,17.44-66,17.44-1.26,1.68-.63,5.46Z"/><path class="cls-8" d="M78.5,8.69a6.81,6.81,0,0,1-6.09,3.36C68,12.05,67,7,71.78,5.11a28.63,28.63,0,0,0,7.14-3.78S87.74-1.19,91.52.7,97.4.49,98.67,3.43c0,0,9,0,6.93,5.26,0,0,0,2.52-4,2.94s-4.21-1.47-4.21-1.47-1.25,2.94-5.46,3.15S88.16,9.53,85,10.79s-4.62,4-6.51-2.1Z"/><path class="cls-9" d="M60.66,52.55c4-9.41,13.69-14.31,21.75-10.92s11.38,13.76,7.42,23.18S76.13,79.12,68.08,75.73,56.7,62,60.66,52.55Z"/><path class="cls-9" d="M122.18,52.55c-4-9.41-13.7-14.31-21.75-10.92S89.05,55.39,93,64.81s13.69,14.31,21.75,10.92S126.13,62,122.18,52.55Z"/><path class="cls-4" d="M81.86,59.73a1.81,1.81,0,1,1-1.79-2.1,2,2,0,0,1,1.79,2.1Z"/><path class="cls-4" d="M102.45,59.73a1.81,1.81,0,1,1-1.79-2.1,2,2,0,0,1,1.79,2.1Z"/><path class="cls-8" d="M6.87,102.79s13.86,2.31,21,8.41,12.4,13.23,1.05,15.33-14.28,0-20,.42-13.66-10.08-5.46-21l3.36-3.16Z"/><path class="cls-8" d="M157.27,100.69s-6.3,1.68-8.61,9.88c0,0-2.73,3.57-3.36,5.46s-1.68,6.3,6.72,5,7.14,4,11.55,4.62,16.6-2.73,10.51-17.85c0,0,0-8.62-7.56-8.83s-9.25,1.68-9.25,1.68Z"/><path class="cls-4" d="M158.52,161.34H89.35s10.31-2.94,32.24-2.94a211.87,211.87,0,0,1,36.93,2.94Z"/><path class="cls-4" d="M92.88,161.34H23.71S34,158.4,56,158.4a211.87,211.87,0,0,1,36.93,2.94Z"/></g></g></svg>