<svg xmlns="http://www.w3.org/2000/svg" viewBox="0 0 144.48 175.75"><defs><style>.cls-1{fill:#5e697e;}.cls-2{fill:#f5ae28;}.cls-3{fill:#d29622;}.cls-4{fill:#0088c8;}.cls-5{fill:#f7e0cf;}.cls-6{fill:#fff;}.cls-7{fill:#231f20;}.cls-8{fill:#48b749;}.cls-9{fill:#2e8735;}</style></defs><title>Kyle</title><g id="Layer_2" data-name="Layer 2"><g id="Layer_1-2" data-name="Layer 1"><polygon class="cls-1" points="35.21 160.43 35.21 175.34 109.56 175.34 109.56 158.18 35.21 160.43 35.21 160.43"/><path class="cls-2" d="M30.92,106.91S20.7,124.07,18.46,132.64s-4.7,13.69-2.66,21.05,12.46,7.14,12.46,7.14,14.1,4.3,42.08,4.3,43.51-2.86,52.09-5.93l5.52-9s-.82-19.81-16.75-43.3Z"/><polygon class="cls-3" points="30.71 147.76 36.84 134.07 34.8 133.87 29.69 147.35 30.71 147.76 30.71 147.76"/><polygon class="cls-3" points="105.68 136.12 112.02 149.4 113.65 148.17 106.7 135.71 105.68 136.12 105.68 136.12"/><path class="cls-3" d="M48.28,131l-.2,18.18s1,2,8.17,2S65,148.78,65,148.78V131.21s-8.78-3.06-16.75-.2Zm15.12,1L56,138.16,49.71,132a26.19,26.19,0,0,1,13.69,0ZM49.1,149.19l.41-15.93L56,139.18l7.56-6.33L63.81,148s-1,3.88-14.71,1.22Z"/><path class="cls-3" d="M81.58,130.6l-.21,18.18s1,2.05,8.17,2.05,8.79-2.45,8.79-2.45V130.81s-8.79-3.07-16.75-.21Zm15.11,1-7.35,6.13L83,131.62a26.14,26.14,0,0,1,13.68,0ZM82.4,148.78l.4-15.93,6.54,5.92,7.56-6.33.2,15.12s-1,3.88-14.7,1.22Z"/><path class="cls-4" d="M30.92,106.91h80.89s-1.63,5.72-13.48,11.84-17.16,9.4-25.13,5.32c0,0-4.08,3.88-11.85,2s-22.26-9-31-19.2Z"/><path class="cls-5" d="M13.21,67.55c0-30.09,26.1-54.48,58.29-54.48s58.29,24.39,58.29,54.48S103.69,122,71.5,122,13.21,97.63,13.21,67.55Z"/><path class="cls-6" d="M39.64,60.58c4.23-10.07,14.64-15.3,23.25-11.68s12.17,14.71,7.93,24.78S56.18,89,47.57,85.36,35.41,70.65,39.64,60.58Z"/><path class="cls-6" d="M105.41,60.58c-4.23-10.07-14.64-15.3-23.25-11.68S70,63.61,74.23,73.68,88.87,89,97.48,85.36s12.16-14.71,7.93-24.78Z"/><path class="cls-7" d="M63.69,68a2.05,2.05,0,1,1-2-2.38,2.22,2.22,0,0,1,2,2.38Z"/><path class="cls-7" d="M84.93,68a2.05,2.05,0,1,1-2-2.38,2.22,2.22,0,0,1,2,2.38Z"/><path class="cls-7" d="M58.09,108.54l27.37.41s3.06-1.64,0-3.68a22.9,22.9,0,0,0-12.87-3.88c-5.52,0-12.15,2.55-14.3,4.7s-.2,2.45-.2,2.45Z"/><path class="cls-8" d="M12.74,152.26a10,10,0,1,1,10,10,10,10,0,0,1-10-10Z"/><path class="cls-8" d="M28.67,149a3.48,3.48,0,1,1,3.47,3.47A3.47,3.47,0,0,1,28.67,149Z"/><path class="cls-8" d="M129.38,152.26a10,10,0,1,0-10,10,10,10,0,0,0,10-10Z"/><path class="cls-8" d="M113.45,149a3.48,3.48,0,1,0-3.48,3.47,3.48,3.48,0,0,0,3.48-3.47Z"/><path class="cls-7" d="M27.85,175.75h90.7s-6.53-3.88-45.76-3.88c0,0-32.68-2.05-44.94,3.88Z"/><path class="cls-8" d="M28.19,46.85s.55,25.6-15.25,43S-6.67,70.27,15.66,43V9.26S14,0,24.92,0h96.42s8.17,2.18,8.17,8.17V42s19.07,24.51,14.17,45.75-27.24-12-27.78-41.4c0,0-34.87-14.7-87.71.55Z"/><path class="cls-9" d="M24.38,22.33H120.8V51.75s-40.86-9.26-96.42,1.09V22.33Z"/></g></g></svg>