<svg xmlns="http://www.w3.org/2000/svg" viewBox="0 0 42.14 143.71"><defs><style>.cls-1{fill:#f2e7d6;}.cls-2{fill:#666;}.cls-3{fill:#a78e41;}.cls-4{fill:#67302d;}.cls-5{fill:#edd5be;}.cls-6{fill:#1d1e1e;}</style></defs><title>MobileMan</title><g id="Layer_2" data-name="Layer 2"><g id="Layer_1-2" data-name="Layer 1"><g id="object"><path class="cls-1" d="M17.69,35a1.54,1.54,0,0,0-.85,0c-1,.36-.84,2-.52,3.22,1.07,4.29,2.16,8.59,3.65,12.84a2.57,2.57,0,0,0-1,.33c-3.41,1.77-6.17,3.34-9.8,5.48a3.36,3.36,0,0,1-.43.2,9.09,9.09,0,0,1-3.12.15,2.19,2.19,0,0,0-.72,0,.5.5,0,0,0-.46.42.61.61,0,0,0,.41.62,3,3,0,0,0-1.35.68,1.41,1.41,0,0,0-.26,1.56,2.48,2.48,0,0,0,2.05,1.27,7.53,7.53,0,0,0,5-1.47,16.55,16.55,0,0,0,2.29-.64l7.33-2.24a9,9,0,0,0,3.23-1.47,3.75,3.75,0,0,0,1.09-1.57c1.5-3.85-1.15-11.15-2.82-15C20.68,37.48,19.43,35.4,17.69,35Z"/><path class="cls-2" d="M1.57,40.84S-.83,30.19.63,29.4s2.92-.34,3.52,4S6.29,42.54,1.57,40.84Z"/><path id="pants" class="cls-3" d="M41,79.68l.15-1.15c.18-1.36.32-2.9-.56-4-.29-.35-3.62-.15-4.22-.21a18.29,18.29,0,0,1-3.42-.81,16.77,16.77,0,0,0-7.52-.33c-2,.37-4,.65-6,.82a12.33,12.33,0,0,0-2.07.45c-2.45.67-2.3.74-1.92,3.23.33,2.12.59,4.26.8,6.4.4,4.08,0,8.33.59,12.38.5,3.84.82,7.73,1.11,11.63.7,9.51,1.44,19,2.44,28.5a15.9,15.9,0,0,0-1.74,2.1,5.62,5.62,0,0,0-1.37,3.88c1.43.65,3-.28,4.34-1.17l1.76-1.19c4-2.68,2.37-9.71,2.53-14.58q.3-9.6.61-19.2c0-1.34-.58-15.36,1.28-15.27,1.1.06,1.56,19.48,1.63,21.55q.29,8.1.18,16.22c0,4.6-1.54,9.58,2.36,12.2l1.75,1.19c1.34.89,2.91,1.82,4.35,1.17a5.58,5.58,0,0,0-1.38-3.88,14.59,14.59,0,0,0-1.74-2.1c-.29-.29.42-4.12.47-4.69.17-1.75.32-3.5.47-5.25q.52-6.06.93-12.13C37.57,103.49,39.38,91.58,41,79.68Z"/><path id="shirt" class="cls-4" d="M34.59,26a13.07,13.07,0,0,1-2.51,1.51,10.14,10.14,0,0,1-10.7-1.8,8.86,8.86,0,0,0-4.9,5.61,28.71,28.71,0,0,0-1.16,7.87q-1,18.69-2.06,37.37a3.8,3.8,0,0,0,.19,1.83c.52,1.14,1.91,1.37,3.08,1.44a141,141,0,0,0,23.87-.58,2.07,2.07,0,0,0,1-.26c.61-.41.69-1.32.7-2.1a279.56,279.56,0,0,0-1.68-35.43c-.48-4.3-1.08-8.66-2.79-12.59a4.89,4.89,0,0,0-1.45-2.1C35.44,26.24,35.26,25.44,34.59,26Z"/><path class="cls-5" d="M26,26.53a5.23,5.23,0,0,0,2.68.38A5,5,0,0,0,31,25.63c2.18-2,3.21-5,3.73-7.89a16,16,0,0,0-.14-7.32C33.19,5.72,28,2.54,23.85,6.12c-1.91,1.63-2.5,4.32-3,6.81C19.77,18.64,19.87,24.3,26,26.53Z"/><path class="cls-6" d="M34.86,3.31A5.53,5.53,0,0,0,31.49.58C23.77-2.18,16.35,5.41,18.36,13.22a1.42,1.42,0,0,0,1.78.89C24,13.26,27.83,12.33,31,10.2c-.8,2.86-1,5.51,2.29,7.51A1.39,1.39,0,0,0,35,17.37C37.39,13.82,38.68,6.31,34.86,3.31Z"/><path class="cls-1" d="M26.89,31.27a1.6,1.6,0,0,0-.66-.52c-1-.36-1.85,1-2.39,2.15C22,36.9,20.2,40.84,18.72,45a2.25,2.25,0,0,0-1-.34C14,43.93,10.91,43.43,6.8,42.83a3.69,3.69,0,0,1-.45-.11,9.09,9.09,0,0,1-2.49-1.81,2.63,2.63,0,0,0-.52-.48.51.51,0,0,0-.62,0,.62.62,0,0,0-.06.74,3,3,0,0,0-1.46-.32,1.41,1.41,0,0,0-1.17,1,2.52,2.52,0,0,0,.79,2.24,7.54,7.54,0,0,0,4.78,2A16.88,16.88,0,0,0,7.74,47l7,2.81a8.84,8.84,0,0,0,3.39.86,3.82,3.82,0,0,0,1.8-.54c3.53-2,6-9.28,7.12-13.29C27.65,35,28,32.66,26.89,31.27Z"/><path id="shirt-2" data-name="shirt" class="cls-4" d="M17.68,42.67l12.41,5.47S36,34,26.09,30,17.68,42.67,17.68,42.67Z"/></g></g></g></svg>