<svg xmlns="http://www.w3.org/2000/svg" xmlns:xlink="http://www.w3.org/1999/xlink" viewBox="0 0 364.86 620.96"><defs><style>.cls-1{fill:url(#radial-gradient);}.cls-2{fill:#66be8e;}.cls-3{fill:#fff;}</style><radialGradient id="radial-gradient" cx="182.43" cy="311.62" r="487.8" gradientTransform="matrix(0, -1, -1, 0, 494.05, 492.91)" gradientUnits="userSpaceOnUse"><stop offset="0" stop-color="#009343"/><stop offset="0.17" stop-color="#008c40"/><stop offset="0.43" stop-color="#017837"/><stop offset="0.73" stop-color="#03572a"/><stop offset="1" stop-color="#05351b"/></radialGradient></defs><title>soccer-field</title><g id="Layer_2" data-name="Layer 2"><g id="Layer_1-2" data-name="Layer 1"><g id="Football_Field" data-name="Football Field"><rect width="364.86" height="620.96"/><rect class="cls-1" width="364.86" height="620.96"/><rect class="cls-2" y="541.95" width="364.86" height="79.01"/><rect class="cls-2" y="383.92" width="364.86" height="79.01"/><rect class="cls-2" y="225.9" width="364.86" height="79.01"/><rect class="cls-2" y="67.87" width="364.86" height="79.01"/><path class="cls-3" d="M7.82,11.8V612H358.45V9H7.82ZM10.6,598.35A11.18,11.18,0,0,1,19,609.16H10.6Zm132.5-78a77.21,77.21,0,0,1,80.07,0Zm-11.94,3.73H294.28V607.3H237.73V567H128.54V607.3H72V524.09Zm-.85,83.21V568.73H236V607.3Zm225.36,1.87H344.85a11.2,11.2,0,0,1,10.82-8.39Zm0-10.87a13.69,13.69,0,0,0-13.38,10.87H298v-88.8H229.92a80.82,80.82,0,0,0-93.57,0H68.26v88.8H21.48A13.68,13.68,0,0,0,10.6,595.79V307.69h91c0,.93-.07,1.86-.07,2.79a80.93,80.93,0,1,0,161.86,0c0-.93,0-1.86-.07-2.79H355.7ZM186.13,304.91a3.3,3.3,0,0,0-6,0h-74.7a77.18,77.18,0,0,1,154,0Zm-6,2.78a3.3,3.3,0,0,0,6,0h73.43c0,.93.07,1.86.07,2.79a77.21,77.21,0,0,1-154.41,1.76c0-.59,0-1.17,0-1.76,0-.93,0-1.86.07-2.79Zm175.53-2.78H263.15a80.91,80.91,0,0,0-161.44,0H10.6V22.67A13.68,13.68,0,0,0,24,11.8H67.55v88.8h68.09a80.84,80.84,0,0,0,93.58,0h68.09V11.8h47.48a13.68,13.68,0,0,0,10.88,13.37ZM222.46,100.6a77.21,77.21,0,0,1-80.07,0Zm11.94-3.73H71.28V13.66h56.55V54H237V13.66h56.55V96.87Zm.86-83.21V52.23H129.6V13.66Zm120.41,9a11.19,11.19,0,0,1-8.4-10.81h8.4ZM21.41,11.8A11.19,11.19,0,0,1,10.6,20.19V11.8Z"/><path class="cls-3" d="M185.74,36.33a3.31,3.31,0,1,0-3.31,3.31h0A3.32,3.32,0,0,0,185.74,36.33Z"/><path class="cls-3" d="M179.82,584.63a3.32,3.32,0,1,0,3.33-3.31h0A3.31,3.31,0,0,0,179.82,584.63Z"/></g></g></g></svg>