<svg xmlns="http://www.w3.org/2000/svg" xmlns:xlink="http://www.w3.org/1999/xlink" viewBox="0 0 620.96 364.86"><defs><style>.cls-1{isolation:isolate;}.cls-2{mix-blend-mode:difference;fill:url(#radial-gradient);}.cls-3{mix-blend-mode:color-burn;}.cls-4{fill:#66be8e;}.cls-5{fill:#fff;}</style><radialGradient id="radial-gradient" cx="310.48" cy="182.43" r="487.8" gradientUnits="userSpaceOnUse"><stop offset="0" stop-color="#009343"/><stop offset="0.17" stop-color="#008c40"/><stop offset="0.43" stop-color="#017837"/><stop offset="0.73" stop-color="#03572a"/><stop offset="1" stop-color="#05351b"/></radialGradient></defs><title>Asset 1</title><g class="cls-1"><g id="Layer_2" data-name="Layer 2"><g id="Football_Field" data-name="Football Field"><rect width="620.96" height="364.86"/><rect class="cls-2" width="620.96" height="364.86"/><g class="cls-3"><rect class="cls-4" width="79.01" height="364.86"/><rect class="cls-4" x="158.03" width="79.01" height="364.86"/><rect class="cls-4" x="316.05" width="79.01" height="364.86"/><rect class="cls-4" x="474.08" width="79.01" height="364.86"/></g><path class="cls-5" d="M609.16,7.82H9V358.45H612V7.82ZM22.61,10.6A11.18,11.18,0,0,1,11.8,19V10.6Zm78,132.5a77.21,77.21,0,0,1,0,80.07Zm-3.73-11.94V294.28H13.66V237.73H54V128.54H13.66V72H96.87Zm-83.21-.85H52.23V236H13.66ZM11.8,355.67V344.85a11.2,11.2,0,0,1,8.39,10.82Zm10.87,0A13.69,13.69,0,0,0,11.8,342.29V298h88.8V229.92a80.81,80.81,0,0,0,0-93.57V68.26H11.8V21.48A13.68,13.68,0,0,0,25.17,10.6h288.1v91c-.93,0-1.86-.07-2.79-.07a80.93,80.93,0,1,0,0,161.86c.93,0,1.86,0,2.79-.07v92.38ZM316.05,186.13a3.3,3.3,0,0,0,0-6v-74.7a77.18,77.18,0,0,1,0,154Zm-2.78-6a3.3,3.3,0,0,0,0,6v73.43c-.93,0-1.86.07-2.79.07a77.21,77.21,0,1,1,0-154.41c.93,0,1.86,0,2.79.07Zm2.78,175.53V263.15a80.91,80.91,0,0,0,0-161.44V10.6H598.29A13.69,13.69,0,0,0,609.16,24V67.55h-88.8v68.09a80.83,80.83,0,0,0,0,93.58v68.09h88.8v47.48a13.67,13.67,0,0,0-13.37,10.88ZM520.36,222.46a77.21,77.21,0,0,1,0-80.07Zm3.73,11.94V71.28H607.3v56.55H567V237H607.3v56.55H524.09Zm83.21.86H568.73V129.6H607.3Zm-8.95,120.41a11.19,11.19,0,0,1,10.81-8.4v8.4ZM609.16,21.41a11.18,11.18,0,0,1-8.39-10.81h8.39Z"/><path class="cls-5" d="M584.63,185.74a3.31,3.31,0,1,0-3.31-3.31A3.32,3.32,0,0,0,584.63,185.74Z"/><path class="cls-5" d="M36.33,179.82a3.32,3.32,0,1,0,3.31,3.31A3.31,3.31,0,0,0,36.33,179.82Z"/></g></g></g></svg>