<svg xmlns="http://www.w3.org/2000/svg" viewBox="0 0 39.26 132.47"><defs><style>.cls-1{fill:#262626;}.cls-2{fill:#bfbfbf;}.cls-3{fill:#fff;}.cls-4{fill:#363f4c;}.cls-5{fill:#191919;}.cls-6{fill:#aa4a4d;}.cls-7{fill:#f9e9de;}.cls-8{fill:#537082;}</style></defs><title>WalkingMan</title><g id="Layer_2" data-name="Layer 2"><g id="Layer_1-2" data-name="Layer 1"><g id="object"><path class="cls-1" d="M24.1,40.41a19.18,19.18,0,0,0,2.39,5,6.41,6.41,0,0,0,4.59,2.75,2.78,2.78,0,0,0,2.17-.68c.6-.61,2.33-2.3,2.58-3.12a28.24,28.24,0,0,0,1.06-12c-.26-2.57-.84-4.67-1.16-7.23A25.45,25.45,0,0,0,34.14,20a7.15,7.15,0,0,0-1.87.59,50.22,50.22,0,0,1,.92,13,16.81,16.81,0,0,1-.94,5.17,2.37,2.37,0,0,1-1.4,1.6,1.83,1.83,0,0,1-1.73-.62A5.52,5.52,0,0,1,28.19,38l-3.06-7.52A3.42,3.42,0,0,0,24,28.76a2.07,2.07,0,0,0-2.23.16,3.28,3.28,0,0,0-1.17,2c-.12.61.39,1,.63,1.55a27.68,27.68,0,0,1,1,2.62C22.81,36.86,23.46,38.64,24.1,40.41Z"/><path class="cls-2" d="M33.82,21.16a.81.81,0,0,0,.37-.36,1.15,1.15,0,0,0,.07-.49L34.2,17.2a16.62,16.62,0,0,0-.2-2.54,1.7,1.7,0,0,0-.51-1,1.88,1.88,0,0,0-1.18-.27,4.38,4.38,0,0,0-1.61.21.82.82,0,0,0-.25.16.91.91,0,0,0-.11.3,6.44,6.44,0,0,0-.05,1.24,25.49,25.49,0,0,0,.09,2.62A7.24,7.24,0,0,0,31.13,21c.25.46.73.43,1.2.47A2.48,2.48,0,0,0,33.82,21.16Z"/><path class="cls-3" d="M31.46,20.36a.49.49,0,0,0,.06.17.36.36,0,0,0,.29.11,3.49,3.49,0,0,0,.91-.06,1.18,1.18,0,0,0,.81-.44,1.5,1.5,0,0,0,.17-.86,39.24,39.24,0,0,0-.26-4.59.43.43,0,0,0-.08-.24.49.49,0,0,0-.21-.08,4.18,4.18,0,0,0-1,0,1.41,1.41,0,0,0-1,.37,1.4,1.4,0,0,0-.21.79A21.72,21.72,0,0,0,31.46,20.36Z"/><path id="pants" class="cls-4" d="M4.78,127.61a5.73,5.73,0,0,1-3.64-.92l5.52-12.46a24.37,24.37,0,0,0,1.51-4A24.86,24.86,0,0,0,8.72,105q.34-10.26.68-20.53a4.22,4.22,0,0,1,.29-1.68c.7-1.49,2.74-1.63,4.38-1.55a1.68,1.68,0,0,1,1,.29,1.58,1.58,0,0,1,.34,1.16c.1,5.4,1,.52,1.12,5.92,0,1.9-.76,14.09-1.15,16a29.67,29.67,0,0,1-3.48,9.57C9.19,118.46,7.47,122.42,4.78,127.61Z"/><path id="pants-2" data-name="pants" class="cls-4" d="M19.33,85.56l6.83-.86c.12-.31-.45,0-.41.33a151.36,151.36,0,0,1,.3,31.13c-.42,4.46-1,8.94-.61,13.4l-2.81.27-5.1-41.74a2.38,2.38,0,0,1,.36-2A2.36,2.36,0,0,1,19.33,85.56Z"/><path class="cls-5" d="M25,131.73c.43.29-.08.6-.33.65a4.17,4.17,0,0,1-1.41.05.76.76,0,0,1-.35-.11.8.8,0,0,1-.21-.2c-.17-.21-.56-.53-.64-.78a1,1,0,0,1,.12-.63,2.84,2.84,0,0,0,.43-1.39c1,0,1.94-.43,2.8-.24.11.34.4.6.3.89a13.54,13.54,0,0,1,2.84.21c.47,0,1,.07,1.42.07s1.05-.25,1.3.1a1.12,1.12,0,0,1,.15.42.65.65,0,0,1,0,.34.6.6,0,0,1-.38.42C29.13,132.46,27,131.5,25,131.73Z"/><path class="cls-5" d="M2.73,129.69c.29.47-.34.55-.61.49a4.78,4.78,0,0,1-1.41-.56.77.77,0,0,1-.3-.27.68.68,0,0,1-.11-.29,3.41,3.41,0,0,1-.3-1,1.19,1.19,0,0,1,.4-.57A4.44,4.44,0,0,0,1.53,126a22.49,22.49,0,0,1,3.26,1.52c-.36.31-.37.56-.59.8.15-.16,2.44,1.29,2.72,1.45a11.7,11.7,0,0,0,1.37.69c.36.15,1.14.22,1.23.66a1.29,1.29,0,0,1,0,.48.81.81,0,0,1-.15.34.68.68,0,0,1-.56.26C6.48,132.21,4.83,130.34,2.73,129.69Z"/><path id="shirt" class="cls-6" d="M19.89,22.19a7.21,7.21,0,0,0-1.51-1.46c-2.42-1.57-4.06-.64-5.63,1.51C10.48,25.34,9.26,29,8.08,32.6c-.87,2.65-1.74,5.3-2.44,8C1.15,57.84,3.89,76,3.14,93.72l15,2a43.06,43.06,0,0,0,9,.56c.78-.06,7.58-1.86,6.92-3.18a30.82,30.82,0,0,1-2.48-8.73A149.61,149.61,0,0,1,30,46.27c.34-4,.85-8,.19-12A15.52,15.52,0,0,0,27,27c-1.83-2.22-4-2.3-6.16-3.88A5.46,5.46,0,0,1,19.89,22.19Z"/><path class="cls-7" d="M23,5.47a12.78,12.78,0,0,0-3.66,6.28,11.4,11.4,0,0,0,.33,7.87c1.16,2.42,3.81,4.24,6.46,3.84a7.49,7.49,0,0,0,4.45-2.8A13.71,13.71,0,0,0,33,7.68c-.6-1.76-1.53-3.94-3.44-4.39C27.45,2.79,24.53,4.16,23,5.47Z"/><path class="cls-5" d="M35,7.26a2.06,2.06,0,0,0,.78-1.48,2.47,2.47,0,0,0-.56-1.34,10.78,10.78,0,0,0-9-4.44A8,8,0,0,0,23.7.47a10.07,10.07,0,0,0-4.6,4.27C17.05,8,15.72,12,17,15.58A2.85,2.85,0,0,0,17.9,17a1.28,1.28,0,0,0,1.55,0,1.87,1.87,0,0,0,.46-.84A61.84,61.84,0,0,1,22.32,10c.6-1.26,1.34-2.61,2.88-2.73C28.44,7,32,9.89,35,7.26Z"/><path class="cls-8" d="M33.91,53a6.62,6.62,0,0,1,3.2.56c1.46.83,1,2.48,1.13,3.91.33,4.77,1.18,9.48,1,14.24a1.36,1.36,0,0,1-.45,1.14,2.13,2.13,0,0,1-.88.29,128,128,0,0,1-25.56,2,1.82,1.82,0,0,1-.89-.14,1.43,1.43,0,0,1-.68-1c-1.32-5.33-1.49-10.68-1.9-16.1a3.49,3.49,0,0,1,.27-2.06c.73-1.29,2.06-1.12,3.56-1.34,2.21-.34,5.6-.61,7.83-.83A132.55,132.55,0,0,1,33.91,53Z"/><path class="cls-1" d="M14.91,44.63a40,40,0,0,1-1.56-8.06,16.64,16.64,0,0,1,1.28-8c.61-1.31,1.82-2.68,3.22-2.34s1.8,1.91,2,3.24c1.06,6,1.67,12.11,2.22,18.2.22,2.51.43,5,.87,7.5a53.74,53.74,0,0,0,6,16.28c-.79.53-1.84,1.08-2.64.54s-.71-1.27-1.13-1.87a14.23,14.23,0,0,1-1.43-2q-1.36-2.72-2.58-5.49Q18.72,57,16.81,51.17C16.15,49,15.51,46.8,14.91,44.63Z"/><path class="cls-7" d="M27.56,74.91a.67.67,0,0,0,.18.45.63.63,0,0,0,.35.11,3.54,3.54,0,0,0,1.45,0,1.32,1.32,0,0,0,1-.92,1.47,1.47,0,0,0,0-.59,4.55,4.55,0,0,0-1.92-2.44C28,71.06,27,71,27,72S27.41,74,27.56,74.91Z"/><path class="cls-3" d="M32.53,20.88c.11-.06.33-.14.45-.07s.07.14,0,.19a.8.8,0,0,1-.34.07C32.49,21.08,32.34,21,32.53,20.88Z"/></g></g></g></svg>